<svg width="45" height="45" viewBox="0 0 45 45" fill="none" xmlns="http://www.w3.org/2000/svg">
<g clip-path="url(#clip0_1_611)">
<path d="M8.40385 14.0963L14.0966 8.40356L36.5966 30.9036L30.9039 36.5963L8.40385 14.0963Z" fill="white"/>
<path d="M14.0963 36.5961L8.40356 30.9034L30.9036 8.40334L36.5963 14.096L14.0963 36.5961Z" fill="white"/>
<path d="M-0.000192476 22.4998L4.74402 17.7556L9.48824 22.4998L4.74403 27.244L-0.000192476 22.4998Z" fill="white"/>
<path d="M17.7565 40.2559L22.5007 35.5117L27.2449 40.2559L22.5007 45.0001L17.7565 40.2559Z" fill="white"/>
<path d="M17.7562 4.74458L22.5004 0.000366211L27.2446 4.74458L22.5004 9.4888L17.7562 4.74458Z" fill="white"/>
<path d="M35.5114 22.5001L40.2556 17.7559L44.9998 22.5001L40.2556 27.2443L35.5114 22.5001Z" fill="white"/>
</g>
<defs>
<clipPath id="clip0_1_611">
<rect width="45" height="45" fill="white" transform="matrix(-1 0 0 1 45 0)"/>
</clipPath>
</defs>
</svg>
